<svg width="20" height="20" viewBox="0 0 20 20" fill="none" xmlns="http://www.w3.org/2000/svg">
<path d="M1.66602 9.99992C1.66602 6.85722 1.66602 5.28587 2.64233 4.30956C3.61864 3.33325 5.18999 3.33325 8.33268 3.33325H11.666C14.8087 3.33325 16.3801 3.33325 17.3564 4.30956C18.3327 5.28587 18.3327 6.85722 18.3327 9.99992V11.6666C18.3327 14.8093 18.3327 16.3806 17.3564 17.3569C16.3801 18.3333 14.8087 18.3333 11.666 18.3333H8.33268C5.18999 18.3333 3.61864 18.3333 2.64233 17.3569C1.66602 16.3806 1.66602 14.8093 1.66602 11.6666V9.99992Z" stroke="#1D1E1F" stroke-width="1.5"/>
<path d="M14.9993 13.3334L13.3327 13.3334M13.3327 13.3334L11.666 13.3334M13.3327 13.3334L13.3327 11.6667M13.3327 13.3334L13.3327 15.0001" stroke="#1D1E1F" stroke-width="1.5" stroke-linecap="round"/>
<path d="M5.83398 3.33325V2.08325" stroke="#1D1E1F" stroke-width="1.5" stroke-linecap="round"/>
<path d="M14.166 3.33325V2.08325" stroke="#1D1E1F" stroke-width="1.5" stroke-linecap="round"/>
<path d="M2.08398 7.5H17.9173" stroke="#1D1E1F" stroke-width="1.5" stroke-linecap="round"/>
</svg>
