<svg width="26" height="27" viewBox="0 0 26 27" fill="none" xmlns="http://www.w3.org/2000/svg">
<g clip-path="url(#clip0_2496_15617)">
<mask id="mask0_2496_15617" style="mask-type:alpha" maskUnits="userSpaceOnUse" x="0" y="0" width="26" height="27">
<path d="M13.0012 0.5C9.47059 0.5 9.02752 0.515442 7.64086 0.578565C6.25691 0.641921 5.31221 0.861053 4.4856 1.18254C3.63055 1.51458 2.90529 1.95877 2.18268 2.68162C1.45952 3.40415 1.01538 4.12943 0.682232 4.98417C0.35995 5.81102 0.140558 6.75594 0.0782744 8.13937C0.0162702 9.52606 0 9.96941 0 13.5C0 17.0306 0.0157108 17.4724 0.0785541 18.859C0.14219 20.243 0.361302 21.1876 0.682511 22.0142C1.01482 22.8692 1.45901 23.5945 2.18185 24.3171C2.90417 25.0402 3.62948 25.4855 4.48397 25.8175C5.31109 26.139 6.25603 26.3581 7.63974 26.4215C9.02645 26.4846 9.46924 26.5 12.9996 26.5C16.5305 26.5 16.9722 26.4846 18.3589 26.4215C19.7429 26.3581 20.6886 26.139 21.5158 25.8175C22.3705 25.4855 23.0947 25.0402 23.817 24.3171C24.5402 23.5945 24.9843 22.8692 25.3175 22.0144C25.6371 21.1876 25.8565 20.2427 25.9214 18.8592C25.9837 17.4726 26 17.0306 26 13.5C26 9.96941 25.9837 9.52629 25.9214 8.13965C25.8565 6.75571 25.6371 5.81102 25.3175 4.98445C24.9843 4.12943 24.5402 3.40415 23.817 2.68158C23.0939 1.95844 22.3708 1.5143 21.5149 1.1825C20.6862 0.861007 19.7409 0.641921 18.3569 0.578518C16.9703 0.515442 16.5288 0.5 12.9972 0.5H13.0012ZM11.835 2.84272C12.1811 2.84216 12.5673 2.84272 13.0012 2.84272C16.4723 2.84272 16.8837 2.85518 18.2544 2.91746C19.5219 2.9754 20.2098 3.18721 20.6681 3.36515C21.2747 3.6008 21.7073 3.88244 22.162 4.33746C22.617 4.79247 22.8987 5.22579 23.1349 5.83248C23.3128 6.2902 23.5249 6.97811 23.5825 8.2456C23.6448 9.616 23.6584 10.0277 23.6584 13.497C23.6584 16.9664 23.6448 17.3781 23.5825 18.7485C23.5246 20.016 23.3128 20.7039 23.1349 21.1616C22.8992 21.7683 22.617 22.2002 22.162 22.655C21.707 23.11 21.275 23.3916 20.6681 23.6273C20.2104 23.806 19.5219 24.0173 18.2544 24.0753C16.884 24.1375 16.4723 24.1511 13.0012 24.1511C9.52994 24.1511 9.11852 24.1375 7.74809 24.0753C6.48059 24.0168 5.79263 23.805 5.33412 23.627C4.72746 23.3914 4.29413 23.1097 3.83913 22.6547C3.38412 22.1997 3.10244 21.7674 2.86627 21.1605C2.68832 20.7028 2.47625 20.0149 2.41858 18.7474C2.3563 17.377 2.34385 16.9653 2.34385 13.4938C2.34385 10.0222 2.3563 9.61274 2.41858 8.24233C2.47653 6.97484 2.68832 6.28693 2.86627 5.82865C3.10188 5.22197 3.38412 4.78865 3.83913 4.33363C4.29413 3.87862 4.72746 3.59697 5.33412 3.36081C5.7924 3.18208 6.48059 2.97083 7.74809 2.91256C8.94733 2.85839 9.41208 2.84216 11.835 2.83945V2.84272ZM19.9406 5.00125C19.0794 5.00125 18.3806 5.69919 18.3806 6.5607C18.3806 7.42193 19.0793 8.1207 19.9406 8.1207C20.8019 8.1207 21.5006 7.42197 21.5006 6.5607C21.5006 5.69942 20.8019 5.00069 19.9406 5.00069V5.00125ZM13.0012 6.82396C9.31432 6.82396 6.32512 9.81316 6.32512 13.5C6.32512 17.1869 9.31432 20.1747 13.0012 20.1747C16.6881 20.1747 19.6763 17.1869 19.6763 13.5C19.6763 9.81316 16.6879 6.82396 13.001 6.82396H13.0012ZM13.0012 9.16668C15.3944 9.16668 17.3346 11.1067 17.3346 13.5C17.3346 15.8931 15.3944 17.8334 13.0012 17.8334C10.6079 17.8334 8.66785 15.8931 8.66785 13.5C8.66785 11.1066 10.6078 9.16668 13.0012 9.16668Z" fill="white"/>
</mask>
<g mask="url(#mask0_2496_15617)">
<path d="M13.0043 0.5C7.57688 0.5 5.98956 0.505616 5.68103 0.5312C4.56722 0.623795 3.87417 0.799208 3.11909 1.17527C2.53721 1.46429 2.07829 1.79934 1.62537 2.26897C0.800515 3.12545 0.300621 4.17914 0.119661 5.43164C0.0316775 6.0397 0.00609363 6.1637 0.00089363 9.26956C-0.00111704 10.3048 0.00089363 11.6673 0.00089363 13.4949C0.00089363 18.9194 0.00689084 20.5055 0.0328908 20.8135C0.122886 21.8976 0.292856 22.5797 0.652765 23.3257C1.34062 24.7539 2.65438 25.826 4.20211 26.226C4.73802 26.364 5.32989 26.44 6.08975 26.476C6.4117 26.49 9.69307 26.5 12.9765 26.5C16.2598 26.5 19.5432 26.496 19.8572 26.48C20.737 26.4386 21.2479 26.37 21.8128 26.224C23.3705 25.822 24.6602 24.7659 25.3621 23.3177C25.7151 22.5897 25.894 21.8816 25.975 20.8541C25.9926 20.6301 26 17.0584 26 13.4915C26 9.92399 25.992 6.35891 25.9744 6.13489C25.8924 5.0908 25.7135 4.38873 25.3491 3.64669C25.0502 3.03923 24.7182 2.58562 24.2363 2.12178C23.3763 1.30011 22.3245 0.800075 21.0711 0.619253C20.4638 0.531443 20.3428 0.505443 17.2354 0.500035L13.0043 0.5Z" fill="black"/>
<path d="M13.0043 0.5C7.57688 0.5 5.98956 0.505616 5.68103 0.5312C4.56722 0.623795 3.87417 0.799208 3.11909 1.17527C2.53721 1.46429 2.07829 1.79934 1.62537 2.26897C0.800515 3.12545 0.300621 4.17914 0.119661 5.43164C0.0316775 6.0397 0.00609363 6.1637 0.00089363 9.26956C-0.00111704 10.3048 0.00089363 11.6673 0.00089363 13.4949C0.00089363 18.9194 0.00689084 20.5055 0.0328908 20.8135C0.122886 21.8976 0.292856 22.5797 0.652765 23.3257C1.34062 24.7539 2.65438 25.826 4.20211 26.226C4.73802 26.364 5.32989 26.44 6.08975 26.476C6.4117 26.49 9.69307 26.5 12.9765 26.5C16.2598 26.5 19.5432 26.496 19.8572 26.48C20.737 26.4386 21.2479 26.37 21.8128 26.224C23.3705 25.822 24.6602 24.7659 25.3621 23.3177C25.7151 22.5897 25.894 21.8816 25.975 20.8541C25.9926 20.6301 26 17.0584 26 13.4915C26 9.92399 25.992 6.35891 25.9744 6.13489C25.8924 5.0908 25.7135 4.38873 25.3491 3.64669C25.0502 3.03923 24.7182 2.58562 24.2363 2.12178C23.3763 1.30011 22.3245 0.800075 21.0711 0.619253C20.4638 0.531443 20.3428 0.505443 17.2354 0.500035L13.0043 0.5Z" fill="black"/>
<path d="M13.0043 0.5C7.57688 0.5 5.98956 0.505616 5.68103 0.5312C4.56722 0.623795 3.87417 0.799208 3.11909 1.17527C2.53721 1.46429 2.07829 1.79934 1.62537 2.26897C0.800515 3.12545 0.300621 4.17914 0.119661 5.43164C0.0316775 6.0397 0.00609363 6.1637 0.00089363 9.26956C-0.00111704 10.3048 0.00089363 11.6673 0.00089363 13.4949C0.00089363 18.9194 0.00689084 20.5055 0.0328908 20.8135C0.122886 21.8976 0.292856 22.5797 0.652765 23.3257C1.34062 24.7539 2.65438 25.826 4.20211 26.226C4.73802 26.364 5.32989 26.44 6.08975 26.476C6.4117 26.49 9.69307 26.5 12.9765 26.5C16.2598 26.5 19.5432 26.496 19.8572 26.48C20.737 26.4386 21.2479 26.37 21.8128 26.224C23.3705 25.822 24.6602 24.7659 25.3621 23.3177C25.7151 22.5897 25.894 21.8816 25.975 20.8541C25.9926 20.6301 26 17.0584 26 13.4915C26 9.92399 25.992 6.35891 25.9744 6.13489C25.8924 5.0908 25.7135 4.38873 25.3491 3.64669C25.0502 3.03923 24.7182 2.58562 24.2363 2.12178C23.3763 1.30011 22.3245 0.800075 21.0711 0.619253C20.4638 0.531443 20.3428 0.505443 17.2354 0.500035L13.0043 0.5Z" fill="black"/>
<path d="M13.0043 0.5C7.57688 0.5 5.98956 0.505616 5.68103 0.5312C4.56722 0.623795 3.87417 0.799208 3.11909 1.17527C2.53721 1.46429 2.07829 1.79934 1.62537 2.26897C0.800515 3.12545 0.300621 4.17914 0.119661 5.43164C0.0316775 6.0397 0.00609363 6.1637 0.00089363 9.26956C-0.00111704 10.3048 0.00089363 11.6673 0.00089363 13.4949C0.00089363 18.9194 0.00689084 20.5055 0.0328908 20.8135C0.122886 21.8976 0.292856 22.5797 0.652765 23.3257C1.34062 24.7539 2.65438 25.826 4.20211 26.226C4.73802 26.364 5.32989 26.44 6.08975 26.476C6.4117 26.49 9.69307 26.5 12.9765 26.5C16.2598 26.5 19.5432 26.496 19.8572 26.48C20.737 26.4386 21.2479 26.37 21.8128 26.224C23.3705 25.822 24.6602 24.7659 25.3621 23.3177C25.7151 22.5897 25.894 21.8816 25.975 20.8541C25.9926 20.6301 26 17.0584 26 13.4915C26 9.92399 25.992 6.35891 25.9744 6.13489C25.8924 5.0908 25.7135 4.38873 25.3491 3.64669C25.0502 3.03923 24.7182 2.58562 24.2363 2.12178C23.3763 1.30011 22.3245 0.800075 21.0711 0.619253C20.4638 0.531443 20.3428 0.505443 17.2354 0.500035L13.0043 0.5Z" fill="black"/>
</g>
</g>
<defs>
<clipPath id="clip0_2496_15617">
<rect width="26" height="26" fill="white" transform="translate(0 0.5)"/>
</clipPath>
</defs>
</svg>
