<svg width="120" height="40" viewBox="0 0 120 40" fill="none" xmlns="http://www.w3.org/2000/svg">
<g clip-path="url(#clip0_649_2818)">
<path d="M65.1496 2.13114C64.4923 1.47676 63.6001 0.947245 62.4911 0.550435C61.4356 0.191541 60.1372 0 58.742 0H57.1417C55.7542 0 54.4904 0.186311 53.3847 0.55305C52.3089 0.937439 51.4395 1.45453 50.7334 2.13114C50.0689 2.76656 49.547 3.56933 49.1832 4.51788C48.8376 5.44551 48.6613 6.51696 48.6613 7.70282V10.2072C48.6613 11.3977 48.8318 12.4214 49.1832 13.3353C49.5151 14.2727 50.0045 15.052 50.6807 15.726C51.3581 16.4013 52.1989 16.917 53.2513 17.3034C54.2444 17.6773 55.4672 17.8813 56.8905 17.91L57.0388 17.9133L58.9131 19.9732H63.164L61.0783 17.7237L61.5839 17.6048C63.4523 17.1668 64.8802 16.2895 65.8271 14.9964C66.7649 13.6772 67.2217 12.1096 67.2217 10.2072V7.70282C67.2217 6.51827 67.046 5.44682 66.6991 4.51657C66.336 3.56998 65.8147 2.76721 65.1496 2.13114ZM62.7768 10.406C62.7768 11.9468 62.4879 13.0137 61.8931 13.668C61.2664 14.325 60.2557 14.6552 58.8851 14.6552H56.9991C55.6273 14.6552 54.6173 14.325 53.9958 13.6739C53.3957 13.013 53.1061 11.9461 53.1061 10.406V7.47467C53.1061 5.93515 53.3957 4.86828 53.9906 4.21324C54.616 3.55625 55.6266 3.22612 56.9985 3.22612H58.8845C60.2563 3.22612 61.2664 3.55625 61.8879 4.20736C62.4879 4.86762 62.7768 5.9345 62.7768 7.47467V10.406Z" fill="white"/>
<path d="M4.77806 0.294829H0.663788V15.892H4.77806V9.2809H11.4909V15.892H15.6052V0.294829H11.4909V6.05347H4.77806V0.294829Z" fill="white"/>
<path d="M30.0768 8.99392C30.0768 8.16696 30.0214 7.48055 29.916 6.94646C29.819 6.49997 29.6153 6.09597 29.3069 5.75146C28.9938 5.40498 28.4817 5.1265 27.7834 4.92254C27.0129 4.697 25.9423 4.58456 24.6004 4.58456C22.3949 4.58456 20.8037 4.90096 19.864 5.52854C19.1865 5.97503 18.7928 6.54246 18.6489 7.29097H22.0057C22.1664 6.89743 22.4417 6.59607 22.8101 6.40845C23.2415 6.19141 23.7413 6.08093 24.2913 6.08093C24.7781 6.08093 25.2434 6.17245 25.6709 6.35288C26.2846 6.60783 26.623 7.13277 26.623 7.83226C26.623 8.56377 26.187 9.1227 25.421 9.36916C24.9089 9.5352 24.1214 9.68164 23.0086 9.81369C22.1534 9.92221 21.4258 10.0346 20.8499 10.1497C20.3247 10.2536 19.8002 10.4321 19.2926 10.6812C18.8565 10.8982 18.4967 11.2192 18.2214 11.6356C17.9591 12.0416 17.8237 12.5796 17.8237 13.234C17.8237 14.2309 18.1368 14.9304 18.8012 15.4364C19.508 15.9744 20.4223 16.2463 21.5105 16.2463C22.3994 16.2463 23.1823 16.1339 23.8344 15.9083C24.4605 15.6913 25.0748 15.3043 25.6586 14.7604L26.6406 13.8485L27.0044 15.8914H30.2043C30.1197 15.6024 30.0774 15.2344 30.0774 14.799L30.0768 8.99392ZM25.9709 13.9132C25.4718 14.5787 24.7182 14.9167 23.7277 14.9167C23.0971 14.9167 22.5719 14.7761 22.1697 14.5022C21.6998 14.1766 21.4415 13.6942 21.4415 13.1398C21.4415 12.1534 21.9621 11.7049 22.2751 11.5238C22.6604 11.3029 23.2149 11.1133 24.0108 10.9329C24.7305 10.7714 25.2635 10.6138 25.5896 10.4628L26.6055 9.99281L26.6432 11.5062C26.6484 12.5038 26.4239 13.3091 25.9709 13.9132Z" fill="white"/>
<path d="M8.19015 33.5268C7.39424 33.5268 6.70896 33.3739 6.15449 33.0699C5.587 32.7594 5.14317 32.3194 4.83795 31.7579C4.56722 31.2604 4.37264 30.6949 4.262 30.0784C4.16438 29.479 4.11362 28.8324 4.11362 28.15C4.11362 26.3836 4.43121 25.0016 5.05336 24.0407C5.74775 22.9797 6.72913 22.4423 7.97799 22.4423C9.02316 22.4423 9.89521 22.7548 10.5642 23.3693C11.0888 23.8478 11.4402 24.4747 11.6178 25.2376H15.4399C15.1392 23.6027 14.4201 22.3063 13.3027 21.3794C11.9907 20.287 10.1197 19.7339 7.74111 19.7339C6.65299 19.7339 5.62865 19.9235 4.69347 20.2994C3.76675 20.6694 2.9409 21.2179 2.24261 21.9317C1.54822 22.6437 0.993751 23.5196 0.596121 24.5316C0.203045 25.5442 0 26.6987 0 27.961C0 29.2469 0.19068 30.4164 0.567486 31.4369C0.939736 32.4488 1.48575 33.3203 2.1925 34.0282C2.89535 34.7382 3.76675 35.2867 4.78263 35.6632C5.81543 36.0417 6.99661 36.2332 8.28321 36.2332C10.3443 36.2332 12.05 35.6593 13.3626 34.5264C14.4846 33.5589 15.2167 32.2514 15.5466 30.6361H11.6484C11.4708 31.3676 11.1577 31.9899 10.7087 32.49C10.0989 33.1758 9.25223 33.5268 8.19015 33.5268Z" fill="white"/>
<path d="M23.483 24.4747C21.5612 24.4747 20.0123 25.0016 18.8819 26.0456C17.773 27.0726 17.2055 28.554 17.2055 30.4485C17.2055 32.2684 17.7854 33.6798 18.9197 34.6388C20.0878 35.6338 21.6328 36.1378 23.5077 36.1378C24.439 36.1378 25.3026 36.0103 26.0809 35.7593C26.8384 35.5148 27.499 35.1448 28.0535 34.6604C28.5995 34.1845 29.027 33.57 29.3316 32.8319C29.6492 32.0834 29.8099 31.195 29.8099 30.1876C29.8099 28.4657 29.247 27.0713 28.142 26.0443C27.0213 25.0023 25.4549 24.4747 23.483 24.4747ZM25.6794 33.1294C25.1802 33.8838 24.4266 34.2839 23.5084 34.2839C22.6109 34.2839 21.8619 33.8883 21.3497 33.1379C20.8844 32.4573 20.6599 31.4925 20.6599 30.187C20.6599 29.764 20.7022 29.3384 20.7913 28.922C20.8844 28.4906 21.0243 28.0951 21.2104 27.7381C21.4265 27.3302 21.735 26.9922 22.1248 26.7307C22.5478 26.4607 23.0261 26.3267 23.5552 26.3267C24.4527 26.3267 25.1894 26.7497 25.6924 27.5472C26.1323 28.2533 26.3569 29.1417 26.3569 30.1876C26.3569 31.465 26.1278 32.4554 25.6794 33.1294Z" fill="white"/>
<path d="M47.7189 24.4747C46.1694 24.4747 45.0019 25.0997 44.0407 26.4431L43.3001 27.476L42.7834 26.313C42.5296 25.7371 42.1482 25.2991 41.6107 24.9716C41.0692 24.6421 40.3325 24.4741 39.4182 24.4741C38.7407 24.4741 38.0977 24.6656 37.5048 25.0461C36.8827 25.4436 36.4128 25.8815 36.1122 26.347L34.7748 28.3899V24.8291H31.7193V35.7815H35.1731V30.3752C35.1731 29.3803 35.3169 28.6089 35.6215 28.0153C35.8245 27.6008 36.3621 26.8948 37.6233 26.8948C38.7407 26.8948 39.2821 27.4008 39.5405 27.8257C39.8535 28.3382 39.9973 29.0887 39.9973 30.1857V35.7809H43.4511V30.3746C43.4511 29.3796 43.5949 28.6082 43.8995 28.0146C44.1578 27.5047 44.7162 26.8942 45.9013 26.8942C47.0187 26.8942 47.5601 27.4001 47.8185 27.8251C48.1315 28.3376 48.2799 29.109 48.2799 30.185V35.7802H51.7297V29.1685C51.7297 27.5466 51.4206 26.3307 50.8154 25.5566C50.2498 24.8408 49.2086 24.4747 47.7189 24.4747Z" fill="white"/>
<path d="M79.9166 28.8841C79.9166 28.0486 79.8613 27.3596 79.7559 26.8393C79.6628 26.3928 79.4598 25.9907 79.1506 25.6423C78.8415 25.2978 78.3254 25.0193 77.6187 24.8134C76.8527 24.5878 75.7815 24.4754 74.4402 24.4754C72.2354 24.4754 70.6435 24.7918 69.7038 25.4194C69.0309 25.8639 68.6372 26.4313 68.4888 27.1818H71.8456C72.0063 26.7863 72.2816 26.4843 72.6584 26.2973C73.0814 26.0829 73.5812 25.9718 74.1357 25.9718C74.6225 25.9718 75.0884 26.0633 75.5153 26.2437C76.1206 26.4967 76.4674 27.0367 76.4674 27.7231C76.4674 28.4546 76.0314 29.0135 75.2654 29.26C74.7494 29.428 73.9619 29.5725 72.853 29.7045C71.9978 29.813 71.2703 29.9255 70.6904 30.0405C70.1613 30.1445 69.6368 30.3229 69.1331 30.572C68.7016 30.7864 68.3417 31.1074 68.0664 31.5264C67.7996 31.9324 67.6642 32.4704 67.6642 33.1248C67.6642 34.1198 67.9773 34.8192 68.6417 35.3272C69.3485 35.8652 70.2628 36.1372 71.3503 36.1372C72.2393 36.1372 73.0222 36.0247 73.6743 35.7992C74.3094 35.5782 74.9231 35.1912 75.4984 34.6512L76.4805 33.7393L76.8442 35.7822H80.0442C79.9596 35.5037 79.9173 35.1422 79.9173 34.6892L79.9166 28.8841ZM75.8147 33.7988C75.3279 34.4577 74.5489 34.8062 73.5675 34.8062C72.9369 34.8062 72.4117 34.6656 72.0102 34.3917C71.5403 34.0642 71.2865 33.5818 71.2865 33.0294C71.2865 32.039 71.8117 31.5925 72.1202 31.4134C72.5009 31.1924 73.0554 31.0028 73.8597 30.8224C74.571 30.6609 75.104 30.5034 75.4385 30.3504L76.4544 29.8804L76.4844 31.4003C76.4883 32.3894 76.2637 33.1928 75.8147 33.7988Z" fill="white"/>
<path d="M90.4177 24.4747C89.6556 24.4747 88.9957 24.6323 88.4582 24.9421C87.8992 25.2677 87.3493 25.7861 86.8202 26.481L85.5166 28.2245V24.8297H82.4905V35.7822H85.9442V30.187C85.9442 29.175 86.118 28.4141 86.4863 27.8636C86.7824 27.4217 87.3837 26.8961 88.5812 26.8961C89.7155 26.8961 90.2784 27.4296 90.5492 27.878C90.8668 28.4115 91.0275 29.109 91.0275 29.951V35.7822H94.4812V29.073C94.4812 27.5296 94.1383 26.3562 93.4699 25.5867C92.8263 24.8493 91.7974 24.4747 90.4177 24.4747Z" fill="white"/>
<path d="M99.433 24.8297H96.0893L99.7929 35.1526C99.9667 35.6456 100.047 36.0241 100.047 36.3477C100.047 36.8321 99.8222 37.9571 97.7189 37.9571H97.4267V39.932C98.0111 39.9791 98.4979 40 98.874 40C99.9107 40 100.732 39.9235 101.32 39.7745C101.853 39.6385 102.277 39.426 102.59 39.139C102.925 38.8285 103.2 38.4311 103.407 37.9571C103.665 37.3897 103.987 36.5457 104.363 35.4442L107.999 24.8297H104.85L102.159 34.4362L99.433 24.8297Z" fill="white"/>
<path d="M65.9143 27.9545C65.7067 27.2681 65.3975 26.649 64.996 26.1175C64.6023 25.6011 64.1031 25.1951 63.5148 24.9121C62.9538 24.6388 62.1833 24.4754 61.3562 24.5048C61.2716 24.5068 61.2377 24.5153 61.1531 24.5218C60.8232 24.5473 60.4952 24.6166 60.1561 24.7225C58.2109 25.2559 56.9035 26.6758 56.9035 26.6758L56.7974 26.0123L56.7935 24.8284H53.835V39.9987H57.2887V33.1719C57.2887 33.1719 58.0827 34.8192 59.5405 35.639C59.6928 35.7338 59.8561 35.8109 60.0227 35.8763C60.1392 35.9201 60.2134 35.9175 60.3383 35.9476C60.611 36.0221 60.8674 36.1378 61.1739 36.1378C61.8046 36.1378 62.4352 36.0293 63.0404 35.8149C63.6248 35.6044 64.1624 35.2664 64.6322 34.8134C65.0975 34.3669 65.4874 33.7524 65.7835 32.9914C66.0757 32.2155 66.228 31.278 66.228 30.2105C66.2273 29.4175 66.1212 28.6586 65.9143 27.9545ZM62.0493 32.7718C61.5286 33.4667 60.7965 33.8347 59.9244 33.8347C59.0569 33.8347 58.3372 33.4477 57.8465 32.7162C57.4104 32.0612 57.1905 31.2113 57.1905 30.1863C57.1905 29.2018 57.4235 28.3775 57.8803 27.7355C58.3886 27.0295 59.0869 26.6575 59.8991 26.6575C60.7796 26.6575 61.5202 27.004 62.0369 27.6564C62.5282 28.2683 62.7736 29.1508 62.7736 30.2818C62.7736 31.2904 62.5321 32.1279 62.0493 32.7718Z" fill="white"/>
<path d="M43.6287 5.69654C42.9858 4.95849 41.9569 4.58456 40.5772 4.58456C40.1288 4.58456 39.8913 4.59306 39.519 4.70158C39.1995 4.79702 38.9262 4.91927 38.6574 5.04282C38.647 5.04936 38.63 5.04609 38.617 5.05263C38.6131 5.05589 38.6066 5.06243 38.6001 5.06505C36.1642 6.21102 35.6755 8.34085 35.6755 8.34085V4.93953H32.6448V15.892H36.0985V10.2968C36.0985 9.29137 36.2761 8.53239 36.6445 7.97346C36.9367 7.53154 37.5335 7.00595 38.7394 7.00595C39.8737 7.00595 40.4366 7.53939 40.7074 7.98784C41.0249 8.52128 41.1857 9.2188 41.1857 10.0608V15.892H44.6394V9.18285C44.6401 7.63745 44.2971 6.46401 43.6287 5.69654Z" fill="white"/>
</g>
<defs>
<clipPath id="clip0_649_2818">
<rect width="108" height="40" fill="white"/>
</clipPath>
</defs>
</svg>
