<svg width="122" height="48" viewBox="0 0 122 48" fill="none" xmlns="http://www.w3.org/2000/svg">
<g clip-path="url(#clip0_2297_15813)">
<path d="M45.9529 48.0002C42.1036 48.0002 38.9723 45.0819 38.9723 41.494C38.9723 37.9087 42.1036 34.9893 45.9529 34.9893C49.803 34.9893 52.9367 37.9085 52.9367 41.494C52.9369 45.0816 49.803 48.0002 45.9529 48.0002ZM45.9529 37.6449C43.9103 37.6449 42.2501 39.3727 42.2501 41.4938C42.2501 43.6202 43.9103 45.3473 45.9529 45.3473C47.9954 45.3473 49.6581 43.6202 49.6581 41.4938C49.6581 39.373 47.9957 37.6449 45.9529 37.6449Z" fill="#679940"/>
<path d="M44.4725 30.8498C44.7006 30.643 44.8166 30.3426 44.8166 29.9549V17.6602H29.4097V19.123L29.5994 19.1608C29.6324 19.1678 29.7704 19.2102 30.1567 19.4919C30.3981 19.6688 30.5213 20.007 30.5213 20.4992V29.9549C30.5213 30.3488 30.6546 30.6548 30.9162 30.8593C31.1639 31.0559 31.407 31.1551 31.6429 31.1551H43.6187C43.9605 31.1551 44.2475 31.052 44.4725 30.8498ZM41.3458 20.3207V28.493H33.9921V20.3207H41.3458Z" fill="#679940"/>
<path d="M57.6948 21.9545H53.1461V18.6458C53.1461 17.794 53.27 16.9981 53.5184 16.2637C53.7644 15.5244 53.8994 15.1249 53.9181 15.0619L47.0879 14.167L46.5001 15.1249L48.1698 16.1197C48.6226 16.3745 49.0023 16.7151 49.3142 17.1437C49.6215 17.5691 49.7798 18.0921 49.7798 18.7095V33.6694H52.7145L53.1463 29.8317V24.8654H57.695L57.6948 21.9545Z" fill="#679940"/>
<path d="M77.0626 30.7755L70.8789 26.5216C73.007 23.8477 74.3818 20.8487 74.81 18.8628C74.8493 18.6442 74.8218 18.4828 74.7143 18.3736C74.6085 18.2651 74.4902 18.21 74.3608 18.21H61.8787V21.1248H70.2766C68.5866 25.059 64.8196 29.0808 59.6448 32.247L61.4147 34.0566C63.9684 32.9895 66.9877 30.7347 69.3532 28.2629L74.1815 33.7138L77.0626 30.7755Z" fill="#567532"/>
<path d="M83.4916 14.167L82.9022 15.2223L84.3867 15.9915C84.7144 16.1612 84.9801 16.4587 85.177 16.8857C85.3713 17.3134 85.4702 17.8775 85.4702 18.579V24.1984H82.142V18.8384C82.142 18.1566 82.1889 17.5504 82.2799 17.0146C82.3756 16.4823 82.4303 16.1825 82.4507 16.1197L77.1012 15.2223L76.4861 16.2785L77.8138 17.0445C78.1867 17.2592 78.4674 17.5691 78.6634 17.9732C78.8609 18.3789 78.9543 18.943 78.9543 19.6695V41.0257H81.8647L82.1422 37.7298V27.1026H85.4702V41.9876H88.281L88.6854 38.3432V18.6458C88.6854 17.794 88.8125 16.9879 89.0703 16.2308C89.3305 15.475 89.4715 15.0621 89.4902 15.0007L83.4916 14.167Z" fill="#567532"/>
<path d="M25.1552 15.0621C25.1364 15.1249 25.0015 15.5246 24.7554 16.2639C24.5068 16.9984 24.3823 17.7942 24.3823 18.646V36.9239L23.9495 40.7633H21.0159V18.7095C21.0159 18.0921 20.8584 17.5691 20.5503 17.1437C20.2391 16.7151 19.8583 16.3745 19.4052 16.1197L17.7372 15.1249L18.3243 14.167L25.1552 15.0621Z" fill="#679940"/>
<path d="M17.2496 19.0701H11.0346L11.0353 17.9274C11.0353 17.4517 11.0651 16.9987 11.1247 16.5763C11.1843 16.1476 11.2132 15.9132 11.2132 15.8724L6.75879 15.502L6.27749 16.621C6.31516 16.643 6.55338 16.7555 6.98685 16.9606C7.40622 17.1642 7.61626 17.6102 7.63035 18.2976V19.0699H0.960327V21.3914H5.15523C3.72404 22.4736 2.80535 24.1254 2.80535 25.9713C2.80535 29.2202 5.64577 31.8679 9.13687 31.8679C12.628 31.8679 15.4702 29.2199 15.4702 25.9713C15.4702 24.1257 14.5515 22.4736 13.1197 21.3914H17.2496V19.0701ZM9.13687 29.3934C7.32166 29.3934 5.84633 27.8558 5.84633 25.9715C5.84633 24.0879 7.32143 22.5517 9.13687 22.5517C10.9537 22.5517 12.4304 24.0879 12.4304 25.9715C12.4306 27.8558 10.9539 29.3934 9.13687 29.3934Z" fill="#679940"/>
<path d="M19.6152 33.2373C15.3715 33.6164 10.2032 33.7965 6.42348 33.7965H0V36.431H6.4593C10.4536 36.431 15.4513 36.2068 19.615 35.7942L19.6152 33.2373Z" fill="#679940"/>
<path d="M106.468 43.6049L106.472 38.0284C106.472 37.5422 106.502 37.0806 106.564 36.648C106.624 36.2108 106.654 35.9709 106.654 35.9308L102.108 35.5508L101.618 36.6935C101.656 36.7171 101.9 36.8312 102.341 37.041C102.769 37.2478 102.984 37.7031 102.996 38.4037V45.0657C102.996 45.4595 103.131 45.7665 103.392 45.97C103.639 46.1666 103.882 46.2642 104.119 46.2642H117.842V43.6044H106.468V43.6049Z" fill="#567532"/>
<path d="M122 22.1847H117.451V18.6458C117.451 17.794 117.575 16.9981 117.825 16.2637C118.07 15.5244 118.205 15.1249 118.224 15.0619L111.394 14.167L110.804 15.1249L112.474 16.1197C112.929 16.3745 113.308 16.7151 113.62 17.1437C113.927 17.5691 114.083 18.0921 114.083 18.7095V35.9203H117.019L117.45 32.0816V25.0933H122V22.1847Z" fill="#567532"/>
<path d="M103.204 28.356H98.3278V20.3207H107.329V17.6602H93.744V19.123L93.9344 19.1608C93.9681 19.1678 94.1054 19.2102 94.4917 19.4919C94.7348 19.6688 94.857 20.007 94.857 20.4992V29.9549C94.857 30.3488 94.9911 30.6548 95.2528 30.8593C95.4989 31.0559 95.7427 31.1551 95.9795 31.1551H102.761C105.654 31.1551 108.864 30.8971 111.521 30.5213V27.7537C109.176 28.0792 106.306 28.356 103.204 28.356Z" fill="#567532"/>
<path d="M29.4958 6.72963L28.0029 4.95217C27.6388 5.3398 27.2434 5.69566 26.8162 6.01976C26.389 6.3441 25.9564 6.63273 25.5181 6.88589L24.861 6.32717C25.5518 5.90246 26.2201 5.33632 26.8663 4.62807C27.5126 3.91982 27.9433 3.15617 28.1589 2.33641H25.7522V1.41997H29.7072C29.7518 1.41997 29.7927 1.43643 29.8299 1.47028C29.8671 1.50367 29.8782 1.55397 29.8634 1.6212C29.7819 2.09832 29.6277 2.56175 29.4013 3.0129C29.1744 3.46404 28.8981 3.89409 28.5713 4.30374L30.4988 5.77958L29.4958 6.72963ZM34.075 0.29095C34.0676 0.312974 34.0174 0.45671 33.925 0.720999C33.8317 0.985752 33.7854 1.2672 33.7854 1.56487V8.1605L33.6408 9.43512H32.6269V4.46023H31.7133V7.94815L31.613 9.09943H30.5654V1.92282C30.5654 1.66966 30.53 1.47214 30.4596 1.33025C30.3891 1.18907 30.2872 1.08104 30.1534 1.00638L29.6742 0.738155L29.8972 0.369309L31.8247 0.682283C31.8173 0.704307 31.7967 0.808864 31.7634 0.995257C31.7297 1.18165 31.7133 1.39401 31.7133 1.63233V3.44318H32.6269V1.54308C32.6269 1.29687 32.5916 1.09935 32.5211 0.950513C32.4501 0.801445 32.3556 0.697352 32.2369 0.637539L31.702 0.369309L31.9136 0L34.075 0.29095Z" fill="#808285"/>
<path d="M43.1328 4.03561V6.94186L43.0323 8.04886H41.9405V5.26548C41.1829 5.45929 40.3585 5.62134 39.467 5.75187C38.5758 5.88239 37.6992 5.9473 36.8378 5.9473C36.7116 5.9473 36.6074 5.91229 36.5259 5.84112C36.4441 5.77041 36.4032 5.66817 36.4032 5.53371V2.225C36.4032 1.98644 36.3366 1.83575 36.2028 1.772C36.0693 1.70917 35.9949 1.67718 35.9799 1.67718V1.27448H40.7483V2.20251H37.6624V4.79579H38.2417C38.7246 4.79579 39.3004 4.76426 39.9684 4.70097C40.6369 4.63768 41.2943 4.5424 41.9405 4.41581V1.59905C41.9405 1.39017 41.8848 1.21143 41.7735 1.06236C41.6621 0.913289 41.5246 0.790649 41.3613 0.693511L40.8044 0.369641L41.0269 0.0341797L43.4112 0.347154C43.4038 0.362223 43.3555 0.497845 43.2661 0.754947C43.1772 1.01205 43.1326 1.28978 43.1326 1.58769V3.08579H44.8149V4.03584H43.1328V4.03561ZM38.7544 10.4857C38.6502 10.4857 38.5557 10.4523 38.4702 10.385C38.3847 10.318 38.342 10.2135 38.342 10.0721V8.08225C38.342 7.82143 38.262 7.6522 38.1026 7.57384C37.9427 7.49548 37.8554 7.4563 37.8408 7.4563L38.019 7.05407L39.6678 7.17671C39.6678 7.19201 39.6565 7.27593 39.6345 7.42825C39.6121 7.58126 39.6008 7.74331 39.6008 7.91463V9.55786H43.478V10.4854L38.7544 10.4857Z" fill="#808285"/>
<path d="M53.884 0.346922C53.8766 0.361991 53.8284 0.497613 53.7389 0.754715C53.65 1.01182 53.6051 1.28955 53.6051 1.58746V5.79058H52.4131V3.39876H50.731V5.05312C50.731 5.20961 50.6917 5.32135 50.6138 5.38858C50.536 5.45535 50.4338 5.4892 50.3072 5.4892H46.7759C46.6643 5.4892 46.5698 5.45535 46.4917 5.38858C46.4136 5.32135 46.3746 5.20961 46.3746 5.05312V2.10189C46.3746 1.86357 46.2925 1.70314 46.1296 1.62131C45.9661 1.53924 45.8769 1.49472 45.8623 1.48684L46.0626 1.10687L47.6893 1.26336C47.6893 1.27819 47.6801 1.35818 47.6616 1.50353C47.6426 1.64913 47.6336 1.80723 47.6336 1.97856V2.45938H49.483V1.77779C49.483 1.56149 49.4065 1.41057 49.2545 1.32479C49.102 1.23948 49.0186 1.19265 49.0038 1.18523L49.1935 0.816383L50.8091 0.983998C50.8091 0.998835 50.7957 1.09574 50.7698 1.27448C50.7439 1.45346 50.7312 1.61736 50.7312 1.76643V2.43712H52.4133V1.59905C52.4133 1.39017 52.3577 1.21143 52.2463 1.06236C52.1349 0.913289 51.9974 0.790649 51.8341 0.693511L51.277 0.369641L51.4995 0.0341797L53.884 0.346922ZM49.4833 3.36492H47.6338V4.57253H49.4833V3.36492ZM53.5612 6.40563C53.5612 6.4207 53.5534 6.51738 53.5388 6.69612C53.524 6.87509 53.5164 7.039 53.5164 7.18807V10.1949C53.5164 10.344 53.4811 10.452 53.4106 10.5193C53.3397 10.5863 53.2415 10.6197 53.1151 10.6197H49.0378C48.9185 10.6197 48.8296 10.5807 48.77 10.5026C48.7104 10.4242 48.681 10.318 48.681 10.184V7.50104C48.681 7.26272 48.6045 7.10623 48.4525 7.03158C48.3 6.95739 48.2166 6.91613 48.202 6.90848L48.3691 6.51714L49.9622 6.6625C49.9622 6.67757 49.9549 6.74272 49.9398 6.85794C49.9248 6.97362 49.9174 7.11713 49.9174 7.28845V7.74655H52.2909V7.18784C52.2909 6.96412 52.2239 6.82293 52.0901 6.76312C51.9565 6.70331 51.8787 6.66992 51.8562 6.6625L52.0346 6.29366L53.5612 6.40563ZM52.2911 8.64166H49.9177V9.71458H52.2911V8.64166Z" fill="#808285"/>
<path d="M60.2124 1.62687C60.7246 2.07778 60.9809 2.646 60.9809 3.33153C60.9809 4.01729 60.7246 4.58204 60.2124 5.02507C59.6996 5.46857 59.0982 5.68997 58.4071 5.68997C57.7167 5.68997 57.1185 5.46857 56.6134 5.02507C56.1083 4.58181 55.8557 4.01729 55.8557 3.33153C55.8557 2.646 56.1083 2.07802 56.6134 1.62687C57.1187 1.17572 57.7167 0.950614 58.4071 0.950614C59.098 0.950614 59.6996 1.17572 60.2124 1.62687ZM59.332 4.27046C59.5545 3.95748 59.6664 3.63338 59.6664 3.29815C59.6664 2.97011 59.5548 2.64971 59.332 2.33674C59.109 2.02377 58.801 1.86728 58.4071 1.86728C58.0136 1.86728 57.7051 2.02377 57.4826 2.33674C57.2596 2.64971 57.1483 2.97011 57.1483 3.29815C57.1483 3.63361 57.2596 3.95748 57.4826 4.27046C57.7051 4.58343 58.0136 4.73992 58.4071 4.73992C58.801 4.73992 59.109 4.58343 59.332 4.27046ZM59.1428 10.4857C59.0386 10.4857 58.9438 10.4523 58.8586 10.385C58.7731 10.318 58.7303 10.2135 58.7303 10.0721V8.0375C58.7303 7.77669 58.6504 7.60931 58.491 7.53466C58.3311 7.46047 58.2437 7.41944 58.2292 7.41155L58.4071 7.00933L60.0562 7.14356C60.0562 7.15839 60.0448 7.24255 60.0224 7.39509C60.0005 7.54764 59.9889 7.71015 59.9889 7.88125V9.55832H63.9775V10.4859L59.1428 10.4857ZM63.9112 0.346922C63.9042 0.361991 63.8557 0.497613 63.7663 0.754715C63.6769 1.01182 63.633 1.28955 63.633 1.58746V6.94186L63.5325 8.04886H62.4294V1.59905C62.4294 1.39017 62.3756 1.21143 62.2681 1.06236C62.1602 0.913289 62.0246 0.790649 61.8612 0.693511L61.3044 0.369641L61.5269 0.0341797L63.9112 0.346922Z" fill="#808285"/>
<path d="M74.7851 5.82392V6.72923C75.2601 6.84885 75.6776 7.07953 76.0383 7.42241C76.3983 7.76529 76.5783 8.19348 76.5783 8.70769C76.5783 9.36354 76.3112 9.87751 75.7765 10.2503C75.2412 10.6231 74.6698 10.8095 74.0607 10.8095C73.4516 10.8095 72.8818 10.6231 72.3504 10.2503C71.8189 9.87751 71.5541 9.36354 71.5541 8.70769C71.5541 8.19348 71.7344 7.76529 72.0944 7.42241C72.4541 7.07953 72.8689 6.84862 73.3365 6.72923V5.82392H69.582V4.91838H78.5396V5.82392H74.7851ZM76.9686 4.3592L74.0607 3.20792C73.4964 3.49887 72.9225 3.74856 72.3395 3.95697C71.7563 4.16585 71.2454 4.32234 70.8078 4.42643L70.2168 3.74461C71.0412 3.50629 71.8596 3.18752 72.6734 2.78877C73.487 2.39048 74.0826 1.96345 74.462 1.50882H71.3087V0.603516H76.6229C76.6756 0.603516 76.7211 0.619976 76.7625 0.65336C76.8031 0.687207 76.8126 0.733574 76.7897 0.793386C76.6407 1.1511 76.4089 1.48633 76.0938 1.79931C75.7779 2.11228 75.4156 2.39929 75.0073 2.6601L77.8369 3.30854L76.9686 4.3592ZM74.941 9.56292C75.1862 9.32088 75.3086 9.03225 75.3086 8.69679C75.3086 8.36875 75.1816 8.0873 74.9292 7.85246C74.6767 7.61761 74.3876 7.50053 74.0607 7.50053C73.7409 7.50053 73.4493 7.61761 73.1859 7.85246C72.9225 8.0873 72.791 8.36875 72.791 8.69679C72.791 9.03225 72.9188 9.32088 73.175 9.56292C73.4313 9.80518 73.7268 9.9262 74.0607 9.9262C74.4026 9.92643 74.6956 9.80518 74.941 9.56292Z" fill="#808285"/>
<path d="M79.7198 7.702V6.76285H83.4304V5.67834C83.4304 5.44001 83.3708 5.28561 83.2518 5.21421C83.1326 5.1435 83.067 5.10455 83.0513 5.09713L83.2629 4.73942L84.8792 4.84003C84.8713 4.84745 84.8586 4.92766 84.8399 5.08021C84.8212 5.23322 84.8117 5.38437 84.8117 5.53298V6.76285H88.4551V7.702H79.7198ZM86.9514 5.10826L83.8757 3.0737C83.415 3.52832 82.9085 3.93843 82.3553 4.30334C81.8017 4.66871 81.3174 4.9483 80.9013 5.14165L80.2434 4.54954C80.7709 4.28873 81.4209 3.82484 82.1936 3.15762C82.9665 2.4911 83.3521 1.88509 83.3521 1.34145C83.3521 1.16247 83.2692 1.02499 83.1012 0.927857C82.9344 0.831183 82.8436 0.778789 82.8285 0.77137L83.0848 0.369141L85.1015 0.625779C85.1683 0.633662 85.2129 0.652208 85.2348 0.682115C85.2577 0.712021 85.2646 0.756301 85.2577 0.816114C85.2279 1.08434 85.1408 1.35652 84.9957 1.63216C84.8508 1.90781 84.6673 2.17998 84.4439 2.44798L87.898 4.08008L86.9514 5.10826Z" fill="#808285"/>
<path d="M94.2818 5.86894L92.3542 3.91251C92.0125 4.33746 91.6357 4.72693 91.2232 5.08071C90.811 5.43495 90.3893 5.74213 89.9588 6.00294L89.2793 5.47761C89.8218 5.12012 90.4048 4.56488 91.0287 3.81235C91.6525 3.05936 91.9647 2.33303 91.9647 1.63243C91.9647 1.43862 91.8753 1.28793 91.6967 1.1799C91.5185 1.07186 91.4222 1.0139 91.4074 1.00649L91.6301 0.648536L93.4908 0.883382C93.5426 0.890801 93.5796 0.911434 93.602 0.94505C93.6248 0.978665 93.6318 1.02526 93.6249 1.08461C93.5796 1.44998 93.4908 1.81141 93.3568 2.16913C93.2237 2.52661 93.0557 2.86949 92.8552 3.19753L95.2959 4.90753L94.2818 5.86894ZM96.2821 7.00909C96.8056 7.41132 97.0677 7.94083 97.0677 8.59668C97.0677 9.27456 96.8073 9.81334 96.2869 10.2121C95.7679 10.6104 95.1956 10.8102 94.5717 10.8102C93.9403 10.8102 93.3679 10.609 92.8552 10.2065C92.3434 9.80384 92.0871 9.26761 92.0871 8.59668C92.0871 7.93341 92.3473 7.40251 92.867 7.00376C93.3866 6.60501 93.955 6.40563 94.5717 6.40563C95.188 6.40563 95.7587 6.6071 96.2821 7.00909ZM95.4403 9.49086C95.6785 9.22263 95.797 8.92078 95.797 8.58532C95.797 8.25774 95.6764 7.96123 95.4357 7.69671C95.1935 7.43242 94.9059 7.30004 94.572 7.30004C94.2305 7.30004 93.9389 7.43265 93.6974 7.69671C93.4559 7.96146 93.3353 8.25774 93.3353 8.58532C93.3353 8.92078 93.4559 9.22286 93.6974 9.49086C93.9389 9.75909 94.2305 9.89355 94.572 9.89355C94.9135 9.89355 95.2028 9.75909 95.4403 9.49086ZM97.1677 3.76738V5.49986L97.0674 6.38315H95.9747V1.59905C95.9747 1.39017 95.92 1.21143 95.8086 1.06236C95.6975 0.913289 95.5593 0.790649 95.3964 0.693511L94.8391 0.35805L95.0616 0.0341797L97.4459 0.347154C97.439 0.362223 97.3904 0.497845 97.301 0.754947C97.2116 1.01205 97.1677 1.28978 97.1677 1.58769V2.81733H98.8498V3.76784H97.1677V3.76738Z" fill="#808285"/>
<path d="M99.6633 5.82451V4.91897H102.938V3.57782C102.938 3.33903 102.877 3.18649 102.755 3.11926C102.633 3.05202 102.564 3.01516 102.549 3.00774L102.716 2.6389L104.354 2.75064C104.354 2.75806 104.342 2.83827 104.32 2.99082C104.297 3.14383 104.286 3.29429 104.286 3.44359V4.9192H108.621V5.82474H99.6633V5.82451ZM107.273 0.693359C107.273 0.708197 107.263 0.8313 107.245 1.0622C107.226 1.29357 107.216 1.48344 107.216 1.63228C107.216 1.90051 107.15 2.32708 107.016 2.91223C106.883 3.49737 106.741 3.95385 106.593 4.2819H105.412C105.516 3.99095 105.602 3.64088 105.668 3.23077C105.735 2.82089 105.768 2.47801 105.768 2.20236V1.59913H101.257V0.693359H107.273ZM105.846 7.04279C106.389 7.42299 106.66 7.9372 106.66 8.5854C106.66 9.24868 106.392 9.77401 105.857 10.1619C105.323 10.5493 104.751 10.7431 104.142 10.7431C103.532 10.7431 102.963 10.5476 102.432 10.1563C101.9 9.76497 101.635 9.24126 101.635 8.5854C101.635 7.93743 101.906 7.42299 102.449 7.04279C102.99 6.66282 103.555 6.47271 104.142 6.47271C104.736 6.47271 105.304 6.66282 105.846 7.04279ZM105.022 9.47402C105.267 9.21738 105.39 8.91739 105.39 8.57451C105.39 8.24646 105.263 7.95783 105.011 7.70815C104.758 7.45846 104.468 7.33351 104.142 7.33351C103.814 7.33351 103.521 7.45846 103.261 7.70815C103.001 7.95783 102.871 8.24646 102.871 8.57451C102.871 8.91739 102.999 9.21738 103.256 9.47402C103.512 9.73112 103.807 9.85979 104.142 9.85979C104.483 9.85979 104.777 9.73112 105.022 9.47402Z" fill="#808285"/>
<path d="M114.247 1.62687C114.759 2.07778 115.015 2.646 115.015 3.33153C115.015 4.01729 114.759 4.58204 114.247 5.02507C113.734 5.46857 113.133 5.68997 112.441 5.68997C111.752 5.68997 111.153 5.46857 110.648 5.02507C110.143 4.58181 109.891 4.01729 109.891 3.33153C109.891 2.646 110.143 2.07802 110.648 1.62687C111.153 1.17572 111.751 0.950614 112.441 0.950614C113.133 0.950614 113.734 1.17572 114.247 1.62687ZM113.366 4.27046C113.589 3.95748 113.701 3.63338 113.701 3.29815C113.701 2.97011 113.589 2.64971 113.366 2.33674C113.144 2.02377 112.836 1.86728 112.441 1.86728C112.048 1.86728 111.74 2.02377 111.517 2.33674C111.294 2.64971 111.183 2.97011 111.183 3.29815C111.183 3.63361 111.294 3.95748 111.517 4.27046C111.74 4.58343 112.048 4.73992 112.441 4.73992C112.836 4.73992 113.144 4.58343 113.366 4.27046ZM113.177 10.4857C113.073 10.4857 112.978 10.4523 112.893 10.385C112.808 10.318 112.765 10.2135 112.765 10.0721V8.0375C112.765 7.77669 112.685 7.60931 112.526 7.53466C112.366 7.46047 112.278 7.41944 112.264 7.41155L112.441 7.00933L114.091 7.14356C114.091 7.15839 114.079 7.24255 114.057 7.39509C114.036 7.54764 114.024 7.71015 114.024 7.88125V9.55832H118.013V10.4859L113.177 10.4857ZM117.945 0.346922C117.938 0.361991 117.89 0.497613 117.801 0.754715C117.711 1.01182 117.667 1.28955 117.667 1.58746V6.94186L117.567 8.04886H116.464V1.59905C116.464 1.39017 116.41 1.21143 116.302 1.06236C116.194 0.913289 116.059 0.790649 115.896 0.693511L115.338 0.369641L115.561 0.0341797L117.945 0.346922Z" fill="#808285"/>
</g>
<defs>
<clipPath id="clip0_2297_15813">
<rect width="122" height="48" fill="white"/>
</clipPath>
</defs>
</svg>
